<?xml version="1.0" encoding="UTF-8" standalone="no"?>
<svg
	xmlns:svg="http://www.w3.org/2000/svg"
	xmlns="http://www.w3.org/2000/svg"
	version="1.1"
	width="100%" height="100%" viewBox="25 0 775 577" >
 <g style="fill:none; stroke:#000; stroke-width:1">
	<path d="M226.9,15.3v9"/>
	<path d="M226.9,529.8v-9"/>
	<path d="M367.2,15.3v9"/>
	<path d="M367.2,529.8v-111" style="stroke-width:1.3"/>
	<path d="M507.5,15.3v9"/>
	<path d="M507.5,529.8v-9"/>
	<path d="M648,15.3v9"/>
	<path d="M648,529.8v-9"/>
	<rect x="86.5" y="15.5" width="701.8" height="514.5"/>
 </g>
 <g transform="translate(222,595) scale(0.72,-1)" style="fill:none; stroke:#000; stroke-width:1">
  <g style="stroke-width:3">
	<path d="M167.8,579.8L174.1,449.4L180.8,346.0L187.4,269.0L194.0,212.0L200.7,170.1L207.3,139.7L213.9,118.1
	L220.6,103.0L227.2,93.0L233.8,86.7L240.5,83.3L247.1,81.9L253.7,82.1L260.4,83.4L267.0,85.5L273.6,88.1
	L280.3,91.2L286.9,94.4L293.5,97.7L300.2,101.1L306.8,104.5L313.4,107.8L320.1,111.0L326.7,114.0L333.4,117.0
	L340.0,119.8L346.6,122.5L353.3,125.0L359.9,127.4L366.5,129.6L373.2,131.7L379.8,133.7L386.4,135.6L393.1,137.3
	L399.7,139.0L406.3,140.5L413.0,141.9L419.6,143.3L426.2,144.5L432.9,145.7L439.5,146.8L446.1,147.9L452.8,148.8
	L459.4,149.7L466.0,150.6L472.7,151.4L479.3,152.1L486.0,152.8L492.6,153.5L499.2,154.1L505.9,154.7L512.5,155.2
	L519.1,155.7L525.8,156.2L532.4,156.7L539.0,157.1L545.7,157.5L552.3,157.9L558.9,158.2L565.6,158.6L572.2,158.9
	L578.8,159.2L585.5,159.4L592.1,159.7L598.7,160.0L605.4,160.2L612.0,160.4L618.6,160.6L625.3,160.8L631.9,161.0
	L638.5,161.2L645.2,161.3L651.8,161.5L658.5,161.7L665.1,161.8L671.7,161.9L678.4,162.1L685.0,162.2L691.6,162.3
	L698.3,162.4L704.9,162.5L711.5,162.6L718.2,162.7L724.8,162.8L731.4,162.9L738.1,163.0L744.7,163.0L751.3,163.1
	L758.0,163.2L764.6,163.2L771.2,163.3L777.9,163.4L786.5,163.4"/>
  </g>
	<path d="M-188.2,81.8h12"/>
	<path d="M786.5,81.8h-12"/>
	<path d="M-188.2,164.8h12"/>
	<path d="M786.5,164.8h-12"/>
	<path d="M-188.2,247.8h12"/>
	<path d="M786.5,247.8h-12"/>
	<path d="M-188.2,330.8h12"/>
	<path d="M786.5,330.8h-12"/>
	<path d="M-188.2,413.7h12"/>
	<path d="M786.5,413.7h-12"/>
	<path d="M-188.2,496.7h12"/>
	<path d="M786.5,496.7h-12"/>
	<path d="M249.4,81.8L249.4,65.2" stroke-width="3"/>
	<path d="M-188.2,164.8H786.5"/>
	<path d="M-188.2,81.8L249.4,81.8"/>
 </g>
 <g style="font-size:24px;text-anchor:middle;font-family:Arial,sans, sans-serif">
	<text x="87" y="553">0</text>
	<text x="367" y="553">1</text>
	<text x="400" y="553">r<tspan dy="5" font-size="18">m</tspan></text>
	<text x="649" y="553">2</text>
	<text x="67" y="521">−1</text>
	<text x="70" y="438.5">0</text>
	<text x="70" y="356">1</text>
	<text x="70" y="273.5">2</text>
	<text x="70" y="191">3</text>
	<text x="70" y="108.5">4</text>
	<text x="70" y="26">5</text>
	<text x="720" y="570" style="font-size:28px">r/σ</text>
	<text x="50" y="66" style="font-size:28px">V/ε</text>
 </g>
</svg>
